<svg width="32" height="32" viewBox="0 0 32 32" fill="none" xmlns="http://www.w3.org/2000/svg">
  <!-- Background circle with gradient -->
  <defs>
    <linearGradient id="faviconGradient" x1="0%" y1="0%" x2="100%" y2="100%">
      <stop offset="0%" style="stop-color:#5f5fcd;stop-opacity:1" />
      <stop offset="50%" style="stop-color:#2d5a27;stop-opacity:1" />
      <stop offset="100%" style="stop-color:#d4a574;stop-opacity:1" />
    </linearGradient>
    <filter id="shadow" x="-20%" y="-20%" width="140%" height="140%">
      <feDropShadow dx="0" dy="1" stdDeviation="1" flood-color="#000000" flood-opacity="0.2"/>
    </filter>
  </defs>
  
  <!-- Main background circle -->
  <circle cx="16" cy="16" r="15" fill="url(#faviconGradient)" stroke="#ffffff" stroke-width="1" filter="url(#shadow)"/>
  
  <!-- Book/Pages representing education -->
  <path d="M8 12 L24 12 L24 20 L8 20 Z" fill="#ffffff" opacity="0.95"/>
  
  <!-- Book spine -->
  <rect x="8" y="12" width="2" height="8" fill="#ffffff" opacity="0.8"/>
  
  <!-- Book pages lines (text lines) -->
  <line x1="11" y1="14" x2="22" y2="14" stroke="#5f5fcd" stroke-width="0.8" opacity="0.9"/>
  <line x1="11" y1="16" x2="22" y2="16" stroke="#5f5fcd" stroke-width="0.8" opacity="0.9"/>
  <line x1="11" y1="18" x2="20" y2="18" stroke="#5f5fcd" stroke-width="0.8" opacity="0.9"/>
  
  <!-- Crescent moon representing Islamic theme -->
  <path d="M20 8 A4 4 0 0 1 20 16 A4 4 0 0 0 20 8 Z" fill="#ffffff" opacity="0.95"/>
  
  <!-- Star representing knowledge/guidance -->
  <path d="M12 8 L13 10 L15 10 L13.5 11.5 L14 13.5 L12 12.5 L10 13.5 L10.5 11.5 L9 10 L11 10 Z" fill="#ffffff" opacity="0.95"/>
  
  <!-- Small decorative dots -->
  <circle cx="14" cy="22" r="1.2" fill="#ffffff" opacity="0.7"/>
  <circle cx="18" cy="22" r="1.2" fill="#ffffff" opacity="0.7"/>
  
  <!-- Subtle inner glow -->
  <circle cx="16" cy="16" r="13" fill="none" stroke="#ffffff" stroke-width="0.5" opacity="0.3"/>
</svg>
